# xmcd
#
# Track frame offsets:
#	150
#	12613
#	18450
#	22900
#	27005
#	40706
#	52834
#	58287
#	69310
#	78452
#	84101
#	95402
#	100551
#	106752
#	119242
#	128608
#	134745
#	143127
#	150770
#	155520
#	162920
#
# Disc length: 2313 seconds
#
# Revision: 10
# Processed by: cddbd v1.5.2PL0 Copyright (c) Steve Scherf et al.
# Submitted via: Jack! The Knife 20 Magnifico
#
DISCID=fe090715
DTITLE=La Polla Records - No Somos Nada
DYEAR=1987
DGENRE=Punk
TTITLE0=No Somos Nada
TTITLE1=Socios A La Fuerza
TTITLE2=Otro Militar
TTITLE3=Todo Por La Patria
TTITLE4=Si Hay Futuro
TTITLE5=Jamaica
TTITLE6=Tu Mas Energica Repulsa
TTITLE7=Señores Del Jurado
TTITLE8=Progreso Y Ciencia
TTITLE9=Real Como La Vida Misma
TTITLE10=La Justicia
TTITLE11=Cancer
TTITLE12=Quiero Ver
TTITLE13=Que Paz
TTITLE14=Pitufare
TTITLE15=Odio A Los Partidos
TTITLE16=Hipocritas
TTITLE17=Las Marras
TTITLE18=Mentiras Post
TTITLE19=Los Perros, La Carne
TTITLE20=Subete Los Pantalones
EXTD=La Polla Records
EXTT0=
EXTT1=
EXTT2=
EXTT3=
EXTT4=
EXTT5=
EXTT6=
EXTT7=
EXTT8=
EXTT9=
EXTT10=
EXTT11=
EXTT12=
EXTT13=
EXTT14=
EXTT15=
EXTT16=
EXTT17=
EXTT18=
EXTT19=
EXTT20=
PLAYORDER=
